# File created by Blade
# Date/Time:  Wed Jan 21 19:19:18 2015
# Frame Rate: 120.000 fps
#------------------------------------------------------
:FULLY-SPECIFIED
:DEGREES
1018
root -3.098336 20.427039 -6.485833 55.484233 -27.948833 27.943278
RightUpLeg -167.990575 -33.917859 30.341533
RightLeg 88.085247 -0.000000 -0.000000
RightFoot -17.394763 16.579526 31.335814
RightToeBase 26.486716 -0.000000 -0.000000
LeftUpLeg -56.945213 28.154016 10.575409
LeftLeg 12.550154 -0.000000 -0.000000
LeftFoot 31.896512 9.317327 -3.550477
LeftToeBase 26.630048 -0.000000 -0.000000
Spine -20.537752 17.181536 23.198985
RightShoulder -5.572914 22.716895 -28.204859
RightArm 6.708416 -40.546817 59.164435
RightForeArm 8.625010 -0.000000 -2.226085
RightHand 40.758382 -0.000000 -14.993647
RightHandThumb1 -24.326973 -0.000000 -32.862282
LeftShoulder -16.103509 -17.235777 64.728328
LeftArm 56.072244 -43.477850 -19.740188
LeftForeArm 16.822762 0.000000 18.528438
LeftHand -18.661245 -0.000000 18.906001
LeftHandThumb1 -26.253704 0.000000 33.147579
Head -29.255806 7.120077 20.405325
1019
root -3.152349 20.646242 -6.533617 55.637277 -27.947192 27.889514
RightUpLeg -167.143291 -33.851406 30.086701
RightLeg 87.374950 -0.000000 -0.000000
RightFoot -17.587034 16.472953 31.979402
RightToeBase 26.581282 -0.000000 -0.000000
LeftUpLeg -57.614297 28.184569 9.699913
LeftLeg 12.535073 -0.000000 -0.000000
LeftFoot 30.804165 10.665571 -2.214752
LeftToeBase 27.358911 -0.000000 -0.000000
Spine -20.403643 17.667925 23.142221
RightShoulder -5.270947 22.696642 -28.302125
RightArm 6.847038 -40.367129 59.280982
RightForeArm 9.153211 -0.000000 -3.099325
RightHand 39.093512 -0.000000 -13.330897
RightHandThumb1 -24.326973 -0.000000 -32.862282
LeftShoulder -16.308735 -17.107435 64.486457
LeftArm 55.689185 -43.528908 -20.554267
LeftForeArm 16.878868 -0.000000 19.070494
LeftHand -18.839208 -0.000000 19.066761
LeftHandThumb1 -26.253704 0.000000 33.147579
Head -29.208790 6.779372 19.499447
1020
root -3.201808 20.854094 -6.566975 55.770253 -27.916225 27.839690
RightUpLeg -166.419145 -33.771131 30.025615
RightLeg 86.671697 -0.000000 -0.000000
RightFoot -17.840148 16.319184 32.391355
RightToeBase 26.505553 -0.000000 -0.000000
LeftUpLeg -58.155579 28.145459 8.872140
LeftLeg 12.442320 -0.000000 -0.000000
LeftFoot 29.538230 11.746307 -0.615306
LeftToeBase 27.016642 -0.000000 -0.000000
Spine -20.385017 18.090992 23.111186
RightShoulder -4.863279 22.602732 -28.358839
RightArm 7.027819 -40.300471 59.308843
RightForeArm 9.613131 -0.000000 -3.957473
RightHand 37.321213 -0.000000 -11.033053
RightHandThumb1 -24.326973 -0.000000 -32.862282
LeftShoulder -16.357696 -16.885748 64.160124
LeftArm 55.086752 -43.567755 -21.170822
LeftForeArm 16.721461 -0.000000 19.700937
LeftHand -18.959867 -0.000000 19.147941
LeftHandThumb1 -26.253704 0.000000 33.147579
Head -28.983342 6.466194 18.513314
1021
root -3.233514 21.066658 -6.588634 55.815511 -28.105654 27.942302
RightUpLeg -165.773308 -33.628985 29.870048
RightLeg 85.857923 -0.000000 -0.000000
RightFoot -17.953166 16.140315 32.493006
RightToeBase 26.344134 -0.000000 -0.000000
LeftUpLeg -58.627010 28.121708 7.636422
LeftLeg 12.206731 -0.000000 -0.000000
LeftFoot 28.045931 12.688654 1.074550
LeftToeBase 26.008252 -0.000000 -0.000000
Spine -20.401336 18.455174 22.839032
RightShoulder -4.455687 22.204955 -28.308909
RightArm 7.700048 -40.403374 58.840053
RightForeArm 10.164183 0.000000 -4.665737
RightHand 35.579485 0.000000 -8.219660
RightHandThumb1 -24.326973 -0.000000 -32.862282
LeftShoulder -16.376983 -16.707330 63.889626
LeftArm 54.326015 -43.511688 -21.875295
LeftForeArm 16.689781 -0.000000 20.551112
LeftHand -19.113472 -0.000000 19.032188
LeftHandThumb1 -26.253704 0.000000 33.147579
Head -28.635042 6.219173 17.505384
1022
root -3.267995 21.269389 -6.602567 55.873524 -28.279913 28.005843
RightUpLeg -165.063389 -33.537721 29.669602
RightLeg 85.048960 -0.000000 -0.000000
RightFoot -18.069264 16.070555 32.758146
RightToeBase 26.135518 -0.000000 -0.000000
LeftUpLeg -59.031227 28.088130 6.442608
LeftLeg 11.980201 -0.000000 -0.000000
LeftFoot 26.105289 13.571589 2.344585
LeftToeBase 25.899023 -0.000000 -0.000000
Spine -20.487240 18.870036 22.561537
RightShoulder -4.094044 21.842174 -28.265234
RightArm 8.157969 -40.499973 58.447288
RightForeArm 10.715332 -0.000000 -5.130139
RightHand 33.588408 0.000000 -5.976507
RightHandThumb1 -24.326973 -0.000000 -32.862282
LeftShoulder -16.344907 -16.650016 63.566449
LeftArm 53.489654 -43.343597 -22.525912
LeftForeArm 16.840912 -0.000000 21.521715
LeftHand -19.175254 -0.000000 18.600229
LeftHandThumb1 -26.253704 0.000000 33.147579
Head -28.262694 5.849352 16.451270
1023
root -3.302502 21.465048 -6.613849 55.954067 -28.431741 27.976242
RightUpLeg -164.298664 -33.442154 29.411624
RightLeg 84.304008 -0.000000 -0.000000
RightFoot -18.062479 16.002597 33.245624
RightToeBase 26.072365 -0.000000 -0.000000
LeftUpLeg -59.253445 27.968744 5.510066
LeftLeg 11.715459 -0.000000 -0.000000
LeftFoot 23.665128 14.746709 2.904785
LeftToeBase 25.812857 -0.000000 -0.000000
Spine -20.575032 19.272633 22.360334
RightShoulder -3.767317 21.402942 -28.179226
RightArm 8.692923 -40.641445 57.871518
RightForeArm 10.973896 -0.000000 -5.299849
RightHand 31.786733 0.000000 -4.211828
RightHandThumb1 -24.326973 -0.000000 -32.862282
LeftShoulder -16.300259 -16.621519 63.251157
LeftArm 52.408990 -43.069934 -23.055377
LeftForeArm 16.972779 -0.000000 22.705296
LeftHand -19.274258 0.000000 18.249335
LeftHandThumb1 -26.253704 0.000000 33.147579
Head -27.893883 5.566768 15.323425
1024
root -3.329353 21.657518 -6.619301 56.055372 -28.599591 27.913652
RightUpLeg -163.491535 -33.338674 29.103205
RightLeg 83.524487 -0.000000 -0.000000
RightFoot -18.110650 15.927296 33.499182
RightToeBase 26.061601 -0.000000 -0.000000
LeftUpLeg -59.497124 27.849822 4.534148
LeftLeg 11.542106 -0.000000 -0.000000
LeftFoot 21.309809 15.459530 3.968161
LeftToeBase 24.338179 -0.000000 -0.000000
Spine -20.673006 19.562121 22.259654
RightShoulder -3.343945 21.058307 -28.161070
RightArm 9.101072 -40.957274 57.390642
RightForeArm 11.249061 -0.000000 -5.259744
RightHand 30.219233 -0.000000 -2.657663
RightHandThumb1 -24.326973 -0.000000 -32.862282
LeftShoulder -16.244242 -16.497694 62.844444
LeftArm 51.013996 -42.634803 -23.264811
LeftForeArm 17.325041 -0.000000 23.938210
LeftHand -19.356565 0.000000 18.006779
LeftHandThumb1 -26.253704 0.000000 33.147579
Head -27.504436 5.325172 13.971149
1025
root -3.352436 21.843488 -6.616852 56.143986 -28.764231 27.889885
RightUpLeg -162.733656 -33.248024 28.810839
RightLeg 82.765187 -0.000000 -0.000000
RightFoot -18.200413 15.914883 33.583907
RightToeBase 25.798928 -0.000000 -0.000000
LeftUpLeg -59.680560 27.578652 3.659261
LeftLeg 11.461839 -0.000000 -0.000000
LeftFoot 18.346990 16.438119 4.143778
LeftToeBase 23.391272 -0.000000 -0.000000
Spine -20.852851 19.923947 22.061513
RightShoulder -3.181062 20.592253 -28.230740
RightArm 9.522595 -41.097136 56.887788
RightForeArm 11.282046 -0.000000 -4.948047
RightHand 28.541385 -0.000000 -1.418843
RightHandThumb1 -24.326973 -0.000000 -32.862282
LeftShoulder -16.150718 -16.167410 62.234136
LeftArm 49.844994 -42.375707 -23.466269
LeftForeArm 17.815385 -0.000000 25.093711
LeftHand -19.409171 -0.000000 17.723687
LeftHandThumb1 -26.253704 0.000000 33.147579
Head -27.168143 5.018105 12.610425
